<svg width="750" height="750" viewBox="0 0 750 750" fill="none" xmlns="http://www.w3.org/2000/svg">
<rect width="750" height="750" fill="#232323"/>
<path d="M236.036 432.392L239.811 434.437L242.17 430.032L238.343 427.987L236.036 432.392ZM245.159 424.527L247.518 420.123L243.691 418.078L241.331 422.482L245.159 424.527ZM558.232 546.17C557.131 538.462 553.041 531.436 546.959 526.56C535.371 517.227 523.679 516.65 510.151 523.834C505.118 526.508 499.141 529.601 493.845 529.234C474.917 527.818 458.401 518.643 441.098 510.516C440.784 510.358 440.784 509.887 441.098 509.729C454.573 503.542 468.101 498.404 481.681 493.318C490.699 489.962 499.508 491.955 508.264 494.576C511.043 495.415 513.874 496.307 516.758 496.883C530.548 499.61 543.289 494.157 549.476 482.989C555.086 472.869 552.831 458.922 543.131 449.38C539.251 445.552 537.94 441.934 538.098 436.586C538.622 420.175 526.772 406.648 510.728 404.655C493.583 402.505 478.692 412.52 475.284 429.246C473.396 438.631 468.835 446.024 460.446 449.852C440.469 458.922 420.125 467.312 399.886 475.806C394.696 477.955 388.666 477.379 386.149 472.45C384.419 469.042 382.584 463.327 384.943 459.919C385.939 458.451 387.355 457.297 388.404 455.881C390.606 452.893 390.501 434.489 391.759 429.193C392.179 427.306 391.602 424.212 389.4 423.95C386.726 423.636 383.999 423.478 381.325 423.478C379.648 423.478 375.505 422.902 374.037 423.845C371.835 425.209 371.94 430.609 372.097 432.916C372.779 444.032 374.09 455.147 374.876 466.263C375.715 477.798 384.262 485.82 395.849 484.929C400.411 484.614 405.025 483.356 409.272 481.626C423.114 476.068 436.641 469.828 450.484 464.271C467.681 457.349 480.947 447.492 484.827 427.673C487.029 416.452 500.871 410.475 513.297 413.673C523.522 416.295 531.753 428.092 529.394 438.369C527.821 445.238 528.817 449.38 535.004 453.47C543.289 458.975 545.753 469.724 542.24 478.27C539.146 485.768 530.076 490.172 520.061 488.809C516.915 488.389 513.717 487.865 510.781 486.764C495.89 480.996 481.471 483.251 467.262 489.176C455.989 493.842 444.768 498.823 433.338 503.07C429.72 504.381 424.844 505.168 421.489 503.857C400.044 495.363 378.651 486.712 357.311 477.955C348.975 474.547 312.954 460.391 310.175 458.136C309.441 457.559 304.617 453.365 304.722 452.631L305.508 448.751L298.325 444.923C300.685 438.841 298.168 431.763 292.243 428.617L260.155 411.471C259.788 411.262 259.316 411.419 259.106 411.786L257.585 414.67L237.661 404.026C237.294 403.816 236.822 403.974 236.613 404.341L220.568 434.437C220.359 434.804 220.516 435.276 220.883 435.485L240.807 446.129L239.287 448.96C239.077 449.327 239.234 449.799 239.601 450.009L271.69 467.154C277.562 470.3 284.798 468.518 288.625 463.169L295.808 466.997L297.853 463.222C297.853 463.222 304.722 465.109 308.182 466.525C337.125 478.427 366.12 490.12 395.063 501.917C401.931 504.748 408.695 507.789 415.564 510.726C404.029 515.392 392.703 520.478 381.011 524.62C378.442 525.564 374.771 524.41 371.888 523.362C362.03 519.744 352.121 516.126 342.578 511.774C333.612 507.684 325.171 508.104 316.362 511.827C304.25 517.017 292.033 522.051 279.817 527.032C267.548 532.065 255.278 532.957 242.852 527.189C238.657 525.249 234.148 523.938 229.639 522.942C216.846 520.216 200.801 527.451 194.929 538.305C189.266 548.686 191.888 562.266 202.165 572.386C206.621 576.738 208.823 581.142 209.19 587.591C210.396 610.399 233.886 623.298 253.391 611.5C259.683 607.725 265.293 601.014 268.491 594.355C273.997 582.872 282.753 575.846 293.711 571.127C319.98 559.802 346.301 548.686 372.727 537.781C375.82 536.522 380.224 535.998 383.213 537.151C409.744 547.848 436.117 558.858 462.438 570.026C473.659 574.798 481.995 582.767 487.186 593.935C488.497 596.819 490.384 599.441 492.115 602.062C498.983 612.601 509.05 616.796 521.162 615.013C528.345 613.965 535.529 610.399 539.513 604.16C544.337 596.557 541.506 587.434 544.442 579.202C546.959 572.229 553.303 570.708 556.711 565.045C559.857 559.592 559.123 552.199 558.232 546.17ZM244.163 441.358L228.014 432.706L239.496 411.262L255.645 419.913L244.163 441.358ZM280.865 447.23C280.184 448.541 278.506 449.013 277.195 448.331C276.094 447.754 275.57 446.548 275.832 445.395L274.888 444.871L270.641 447.65L268.019 446.234C267.6 446.444 267.076 446.444 266.604 446.234C265.87 445.867 265.555 444.923 265.975 444.137C266.394 443.403 267.338 443.14 268.072 443.507C268.334 443.665 268.544 443.874 268.701 444.084V444.137C268.806 444.399 268.911 444.661 268.911 444.923L270.798 445.919L272.633 444.713L273.525 444.137L270.903 442.721L265.45 439.785L264.926 440.729L264.664 441.148L263.825 439.785L262.671 437.95L262.147 437.058L263.72 437.006L265.922 436.953H266.971L266.237 438.369L270.484 440.676L272.424 441.725V440.676V438.474L270.903 437.687L270.693 438.107L268.491 436.953L269.697 434.751L271.899 435.905L271.637 436.377L273.787 437.53L273.839 442.564L276.723 444.084C277.562 443.35 278.768 443.14 279.764 443.717C281.075 444.241 281.599 445.919 280.865 447.23ZM293.397 459.185L290.356 457.559L294.76 449.327L297.801 450.953L293.397 459.185ZM339.485 542.762C323.126 549.788 306.714 556.761 290.303 563.734C276.776 569.502 266.342 578.048 260.259 592.1C258.11 597.081 253.548 602.115 248.777 604.684C232.47 613.493 215.482 601.276 217.265 582.191C217.789 576.266 216.636 572.91 211.497 569.659C202.112 563.682 198.337 552.199 201.85 543.601C205.206 535.421 216.741 529.758 227.122 531.436C230.95 532.065 234.83 533.009 238.29 534.687C254.282 542.395 270.064 540.455 285.794 533.953C297.067 529.287 308.392 524.777 319.56 519.901C326.272 516.965 332.511 516.755 339.327 519.796C348.241 523.729 357.469 526.927 366.54 530.545C366.54 530.859 366.54 530.859 366.54 531.174C357.574 534.949 348.555 538.882 339.485 542.762ZM539.042 570.603C534.428 573.067 533.641 575.794 534.428 580.618C535.109 584.603 534.847 588.954 533.956 592.887C532.33 600.018 528.083 605.208 520.376 606.624C512.563 608.092 505.852 605.733 500.504 599.913C498.564 597.763 496.886 595.194 495.785 592.572C488.707 575.532 475.022 565.937 458.715 559.173C437.952 550.574 417.189 542.028 396.426 533.429C395.272 532.957 394.171 532.275 392.336 531.174C391.655 530.807 391.759 529.811 392.441 529.549C404.029 524.672 414.41 520.058 425.001 516.231C427.466 515.34 431.188 516.912 434.02 518.014C447.023 523.047 459.816 528.5 472.82 533.429C487.343 538.934 501.395 539.668 515.604 530.912C530.548 521.631 549.056 532.275 550.052 549.892C550.577 558.858 547.116 566.304 539.042 570.603Z" fill="white"/>
<mask id="mask0_601_60" style="mask-type:luminance" maskUnits="userSpaceOnUse" x="283" y="135" width="196" height="283">
<path d="M370.105 388.191C367.431 382.319 366.959 375.608 367.274 369.263C367.431 365.383 367.903 361.398 369.371 357.833C371.468 352.8 385.258 342.418 376.344 336.86C371.73 333.976 365.648 334.973 360.51 334.973C354.218 334.973 347.874 335.025 341.582 335.025C340.428 335.025 339.275 335.025 338.121 335.025C326.639 335.077 315.156 335.077 303.726 335.077C299.059 335.077 296.228 336.441 296.962 341.946C298.745 355.002 300.055 368.11 301.995 381.113C305.404 403.397 321.238 417.186 343.627 417.658C351.177 417.815 358.78 417.658 366.33 417.658C379.543 417.658 380.591 416.714 378.966 403.554C378.337 398.153 372.307 393.068 370.105 388.191ZM391.288 383.787C391.917 377.023 391.812 370.102 391.288 363.338C390.868 357.833 387.355 354.11 381.692 354.215C375.715 354.32 372.412 358.2 371.835 364.02C371.521 367.166 371.783 370.364 371.783 373.563C371.783 376.761 371.521 379.959 371.835 383.105C372.36 388.506 374.771 392.386 380.854 392.7C387.041 392.91 390.763 389.555 391.288 383.787ZM354.742 139.138C308.812 151.04 278.191 198.439 284.588 245.209C288.049 270.586 291.299 296.015 294.393 321.498C295.074 327.16 297.277 329.52 303.201 329.467C329.365 329.257 355.476 329.362 381.64 329.362C407.07 329.362 432.447 329.1 457.876 329.52C465.479 329.625 468.153 326.898 468.887 319.662C471.404 294.862 473.921 270.114 477.276 245.418C486.19 179.249 426.05 120.682 354.742 139.138ZM457.876 335.025C447.128 335.13 436.379 335.077 425.631 335.077V335.025C415.092 335.025 404.605 334.71 394.119 335.235C388.823 335.497 383.056 338.328 384.209 344.515C385.101 349.339 389.819 352.485 392.126 356.575C395.482 362.604 396.216 369.945 396.059 376.709C395.954 380.798 395.535 384.888 394.014 388.663C390.082 398.625 380.224 399.15 384.629 412.415C384.996 413.464 385.415 414.512 386.254 415.246C387.303 416.19 388.718 416.452 390.082 416.714C400.253 418.392 410.583 417.763 420.859 417.606C442.252 417.291 459.502 401.457 461.756 380.117C463.067 367.952 463.906 355.736 465.741 343.676C466.738 336.755 463.906 334.973 457.876 335.025Z" fill="white"/>
</mask>
<g mask="url(#mask0_601_60)">
<path d="M280.341 185.541C280.341 280.705 280.341 375.817 280.341 470.982C290.932 470.982 301.524 470.982 312.062 470.982C312.062 387.143 312.062 303.356 312.062 219.517C312.062 218.783 312.062 218.049 312.115 217.262C311.905 217.053 311.748 216.79 311.538 216.581C301.419 206.409 291.247 196.289 281.075 186.118C280.865 185.96 280.603 185.751 280.341 185.541Z" fill="#E62340"/>
<path d="M450.012 470.982C460.498 470.982 471.037 470.982 481.523 470.982C481.523 375.975 481.523 280.967 481.523 185.96C481.156 186.118 480.894 186.485 480.632 186.747C470.618 196.761 460.655 206.723 450.641 216.738C450.379 217 450.012 217.262 449.854 217.629C450.117 218.154 450.012 218.73 450.012 219.255C450.012 302.622 450.012 385.989 450.012 469.356C449.959 469.986 450.012 470.51 450.012 470.982Z" fill="#874A97"/>
<path d="M312.115 217.315C312.115 218.049 312.062 218.783 312.062 219.569C312.062 303.408 312.062 387.195 312.062 471.034C323.597 471.034 335.185 471.034 346.72 471.034C346.72 470.562 346.668 470.143 346.668 469.671C346.668 397.629 346.668 325.64 346.668 253.598C346.668 253.126 346.668 252.654 346.72 252.13C346.72 252.025 346.72 251.972 346.72 251.868C346.563 251.658 346.405 251.448 346.196 251.291C335.028 240.123 323.912 229.007 312.744 217.839C312.587 217.682 312.325 217.524 312.115 217.315Z" fill="#EC681D"/>
<path d="M450.012 470.982C450.012 470.458 449.959 469.933 449.959 469.409C449.959 386.042 449.959 302.674 449.959 219.307C449.959 218.783 450.064 218.206 449.802 217.682C449.435 217.891 449.173 218.206 448.91 218.468C438.109 229.269 427.256 240.123 416.455 250.924C416.14 251.238 415.826 251.553 415.564 251.92C415.511 251.972 415.459 252.077 415.406 252.13C415.406 252.654 415.459 253.178 415.459 253.703C415.459 325.535 415.459 397.367 415.459 469.199C415.459 469.723 415.459 470.248 415.459 470.772C415.511 470.877 415.564 470.929 415.616 471.034C427.046 470.982 438.529 470.982 450.012 470.982Z" fill="#2B4798"/>
<path d="M415.668 470.772C415.668 470.248 415.668 469.723 415.668 469.199C415.668 397.367 415.668 325.535 415.668 253.703C415.668 253.178 415.616 252.654 415.616 252.13C415.144 252.392 414.882 252.759 414.515 253.126C403.452 263.875 392.389 274.623 381.378 285.372C381.063 285.686 380.801 286.053 380.329 286.211C380.329 286.787 380.277 287.417 380.277 287.993C380.277 348.553 380.277 409.112 380.277 469.671C380.277 470.143 380.277 470.562 380.277 471.034C392.074 471.034 403.871 471.034 415.668 471.034C415.616 470.929 415.668 470.825 415.668 470.772Z" fill="#44AC34"/>
<path d="M346.72 252.182C346.72 252.654 346.668 253.126 346.668 253.65C346.668 325.692 346.668 397.682 346.668 469.723C346.668 470.195 346.668 470.615 346.72 471.087C358.046 471.087 369.371 471.087 380.696 471.087C380.696 434.961 380.696 398.835 380.696 362.709C380.696 337.122 380.696 311.535 380.696 285.948C380.539 285.739 380.382 285.529 380.172 285.372C369.266 274.466 358.413 263.612 347.507 252.706C347.349 252.549 347.14 252.339 346.93 252.182C346.877 252.13 346.825 252.13 346.72 252.182Z" fill="#FDEB1A"/>
<path d="M346.982 252.13C347.192 252.287 347.402 252.444 347.559 252.654C358.465 263.56 369.318 274.413 380.224 285.319C380.382 285.477 380.539 285.686 380.749 285.896C380.906 285.949 380.958 286.053 381.063 286.158C381.535 286.053 381.797 285.634 382.112 285.319C392.86 274.571 403.609 263.822 414.358 253.074C414.672 252.759 414.987 252.339 415.406 252.077C415.459 252.025 415.511 251.92 415.564 251.868C415.878 251.553 416.14 251.186 416.455 250.871C427.256 240.07 438.109 229.217 448.91 218.416C449.173 218.154 449.435 217.787 449.802 217.629C450.012 217.262 450.326 217 450.588 216.738C460.603 206.723 470.565 196.761 480.58 186.747C480.842 186.485 481.104 186.118 481.471 185.96C481.471 177.466 481.471 168.972 481.471 160.478C480.842 160.531 480.527 161.055 480.16 161.422C447.547 193.982 414.987 226.595 382.374 259.156C381.063 260.466 381.063 260.466 379.805 259.208C357.207 236.61 334.608 214.012 312.01 191.413C301.838 181.241 291.614 171.017 281.442 160.845C281.127 160.531 280.865 160.059 280.288 160.006C280.288 168.5 280.288 176.994 280.288 185.488C280.551 185.698 280.813 185.908 281.023 186.118C291.194 196.237 301.314 206.409 311.486 216.581C311.695 216.79 311.853 217 312.062 217.262C312.272 217.472 312.534 217.629 312.744 217.839C323.912 229.007 335.028 240.123 346.196 251.291C346.353 251.448 346.51 251.658 346.72 251.868C346.877 251.92 346.93 252.025 346.982 252.13Z" fill="#020203"/>
<path d="M280.341 160.059C280.918 160.059 281.127 160.531 281.494 160.898C291.719 171.07 301.891 181.294 312.062 191.466C334.661 214.064 357.259 236.662 379.857 259.261C381.116 260.519 381.116 260.519 382.426 259.208C414.987 226.648 447.6 194.035 480.213 161.474C480.58 161.107 480.842 160.531 481.523 160.531C481.523 152.246 481.523 144.015 481.523 135.73C480.999 135.73 480.475 135.73 479.95 135.73C480.003 136.359 479.479 136.622 479.111 136.989C458.768 157.385 438.372 177.728 418.028 198.072C406.021 210.079 394.066 222.034 382.059 234.041C381.116 234.984 381.116 234.984 380.172 234.041C378.075 231.943 375.977 229.846 373.88 227.749C371.992 225.861 370.157 224.026 368.27 222.139C366.54 220.408 364.862 218.73 363.131 217C361.244 215.113 359.356 213.225 357.469 211.337C355.686 209.555 353.956 207.825 352.173 206.042C346.51 200.379 340.9 194.769 335.29 189.106C327.215 180.979 319.036 172.905 310.961 164.725C308.654 162.418 306.347 160.111 303.988 157.804C300.947 154.816 297.958 151.722 294.917 148.733C290.88 144.749 286.895 140.659 282.805 136.674C282.543 136.412 282.228 136.15 282.333 135.73C281.652 135.73 280.97 135.73 280.341 135.73C280.341 143.805 280.341 151.932 280.341 160.059Z" fill="#5F3914"/>
<path d="M282.333 135.73C282.281 136.15 282.543 136.412 282.805 136.674C286.895 140.659 290.88 144.696 294.917 148.733C297.958 151.722 300.947 154.815 303.988 157.804C306.295 160.111 308.654 162.418 310.961 164.725C318.983 172.905 327.163 180.979 335.29 189.106C340.9 194.769 346.563 200.379 352.173 206.042C353.956 207.824 355.686 209.555 357.469 211.337C359.356 213.225 361.244 215.113 363.131 217C364.862 218.73 366.539 220.408 368.27 222.138C370.157 224.026 371.992 225.861 373.88 227.749C375.977 229.846 378.075 231.943 380.172 234.041C381.116 234.984 381.116 234.984 382.059 234.041C394.066 222.034 406.021 210.079 418.028 198.072C438.372 177.728 458.768 157.332 479.111 136.989C479.478 136.622 480.003 136.359 479.95 135.73C471.823 135.73 463.696 135.73 455.569 135.73C455.517 136.359 455.045 136.622 454.678 136.936C430.507 161.107 406.388 185.226 382.217 209.397C380.958 210.656 381.273 210.656 380.015 209.397C363.446 192.829 346.877 176.26 330.309 159.692C322.706 152.089 315.103 144.486 307.501 136.831C307.186 136.517 306.662 136.254 306.714 135.678C298.587 135.73 290.46 135.73 282.333 135.73Z" fill="#75CAE5"/>
<path d="M306.714 135.73C306.714 136.307 307.186 136.569 307.501 136.884C315.104 144.486 322.706 152.089 330.309 159.744C346.877 176.313 363.446 192.881 380.015 209.45C381.221 210.656 380.958 210.656 382.217 209.45C406.388 185.279 430.507 161.16 454.678 136.989C455.045 136.622 455.569 136.359 455.569 135.783C447.547 135.783 439.473 135.783 431.451 135.783C431.451 136.359 430.979 136.622 430.664 136.936C414.515 153.138 398.313 169.287 382.164 185.436C381.116 186.485 381.273 186.485 380.172 185.436C371.521 176.785 362.817 168.081 354.166 159.43C346.668 151.932 339.17 144.434 331.672 136.884C331.358 136.569 330.833 136.307 330.886 135.73C322.811 135.73 314.736 135.73 306.714 135.73Z" fill="#F4AEC5"/>
<path d="M330.833 135.73C330.833 136.307 331.305 136.569 331.62 136.884C339.117 144.382 346.615 151.879 354.113 159.43C362.764 168.081 371.468 176.785 380.119 185.436C381.168 186.485 381.063 186.485 382.112 185.436C398.261 169.287 414.463 153.085 430.612 136.936C430.926 136.622 431.398 136.359 431.398 135.783C397.894 135.73 364.39 135.73 330.833 135.73Z" fill="white"/>
<path d="M415.511 251.973C415.459 252.025 415.406 252.13 415.354 252.182C415.406 252.077 415.459 252.025 415.511 251.973Z" fill="#0A5760"/>
</g>
<path d="M379.123 398.783C377.97 396.633 376.502 394.641 375.086 392.753C374.404 391.809 373.723 390.865 373.094 390.027C372.517 389.135 371.992 388.296 371.625 387.51C370.577 385.203 369.895 382.738 369.476 380.169C369.056 377.6 368.899 374.926 368.899 372.304C368.899 371.308 368.899 370.364 368.951 369.368C369.056 367.481 369.161 365.593 369.476 363.758C369.79 361.923 370.21 360.193 370.944 358.515C371.101 358.2 371.311 357.728 371.678 357.256C372.255 356.365 373.146 355.264 374.142 354.11C375.61 352.328 377.288 350.335 378.599 348.29C379.281 347.242 379.857 346.193 380.329 345.092C380.749 343.991 381.063 342.838 381.063 341.632C381.063 341.055 381.011 340.478 380.853 339.901C380.644 339.062 380.224 338.223 379.595 337.489C379.018 336.755 378.232 336.074 377.288 335.497C375.715 334.501 373.985 333.924 372.307 333.609C370.577 333.295 368.846 333.19 367.169 333.19C364.862 333.19 362.555 333.347 360.562 333.347C354.27 333.347 347.926 333.4 341.634 333.4C340.481 333.4 339.327 333.4 338.174 333.4C329.837 333.452 321.448 333.452 313.111 333.452C310.018 333.452 306.872 333.452 303.778 333.452H303.726C302.625 333.452 301.576 333.505 300.58 333.714C299.846 333.872 299.112 334.081 298.482 334.448C297.958 334.711 297.539 335.025 297.119 335.392C296.49 335.969 296.018 336.755 295.704 337.594C295.389 338.433 295.232 339.377 295.232 340.426C295.232 341.002 295.284 341.632 295.389 342.313C297.172 355.316 298.482 368.424 300.422 381.533C301.314 387.3 302.992 392.491 305.404 397.105C309.021 404.026 314.265 409.584 320.766 413.411C327.268 417.239 335.08 419.336 343.731 419.546C346.406 419.598 349.08 419.598 351.754 419.598C356.63 419.598 361.506 419.546 366.382 419.546H366.487C369.056 419.546 371.258 419.493 373.041 419.336C374.404 419.231 375.61 419.022 376.659 418.655C377.445 418.392 378.179 418.025 378.809 417.553C379.281 417.186 379.7 416.767 380.067 416.243C380.591 415.509 380.906 414.617 381.116 413.726C381.325 412.782 381.378 411.786 381.378 410.685C381.378 408.745 381.168 406.385 380.801 403.554C380.486 401.719 379.857 400.198 379.123 398.783ZM372.936 410.79C372.779 410.79 372.622 410.842 372.412 410.842C371.625 410.947 370.682 410.999 369.633 410.999C368.584 411.052 367.431 411.052 366.33 411.052H366.225C363.761 411.052 361.296 411.052 358.884 411.104C356.472 411.104 354.008 411.157 351.596 411.157C348.608 411.157 346.091 411.157 343.731 411.104C338.855 410.999 334.451 410.213 330.466 408.745C324.489 406.595 319.613 403.03 315.838 398.206C312.115 393.382 309.546 387.352 308.497 380.117C307.344 372.671 306.452 365.016 305.561 357.623C304.932 352.38 304.302 346.98 303.568 341.632C303.621 341.632 303.621 341.632 303.673 341.632H303.726C306.714 341.632 348.922 341.579 352.592 341.527C355.267 341.527 357.888 341.527 360.562 341.474C361.716 341.474 362.817 341.422 363.918 341.369C365.019 341.317 366.12 341.265 367.169 341.265C368.637 341.265 369.843 341.369 370.786 341.527C371.468 341.684 372.045 341.841 372.517 342.051C372.412 342.313 372.202 342.68 371.94 343.1C371.468 343.886 370.891 344.725 370.21 345.564C369.528 346.403 368.794 347.294 368.112 348.186C367.116 349.392 366.225 350.493 365.386 351.646C364.547 352.8 363.865 353.901 363.341 355.159C362.345 357.571 361.716 360.088 361.349 362.395C360.982 364.754 360.824 366.956 360.719 368.844C360.667 369.945 360.667 370.994 360.667 372.042C360.667 375.713 360.929 379.068 361.506 382.162C362.083 385.255 362.974 388.139 364.128 390.761C364.704 392.071 365.491 393.33 366.225 394.483C367.011 395.689 367.85 396.79 368.637 397.891C369.528 399.097 370.472 400.356 371.206 401.509C371.573 402.086 371.835 402.61 372.045 403.082C372.255 403.554 372.359 403.974 372.412 404.183C372.517 405.232 372.674 406.333 372.779 407.382C372.884 408.43 372.936 409.426 372.936 410.213C372.936 410.265 372.936 410.318 372.936 410.37C372.936 410.632 372.936 410.737 372.936 410.79ZM391.287 383.787C391.917 377.023 391.812 370.102 391.287 363.339C390.868 357.938 387.46 354.215 381.902 354.215C381.85 354.215 381.745 354.215 381.692 354.215C375.715 354.32 372.412 358.2 371.835 364.02C371.521 367.166 371.783 370.364 371.783 373.563C371.783 376.761 371.521 379.96 371.835 383.105C372.359 388.506 374.771 392.386 380.853 392.701C381.116 392.701 381.378 392.701 381.588 392.701C387.355 392.648 390.763 389.292 391.287 383.787ZM386.464 383.315C386.149 386.409 384.681 387.772 381.588 387.772C381.43 387.772 381.22 387.772 381.063 387.772C378.861 387.667 378.232 386.881 377.97 386.618C377.288 385.832 376.869 384.469 376.711 382.634C376.554 380.746 376.606 378.701 376.659 376.604C376.659 375.608 376.711 374.611 376.711 373.615C376.711 372.567 376.711 371.466 376.659 370.469C376.606 368.372 376.554 366.432 376.764 364.597C376.973 362.762 377.498 361.294 378.337 360.402C379.123 359.563 380.277 359.196 381.85 359.144C381.902 359.144 381.955 359.144 382.007 359.144C383.37 359.144 384.471 359.511 385.205 360.245C385.992 361.032 386.411 362.237 386.569 363.758C386.988 371.046 386.988 377.443 386.464 383.315ZM451.322 163.205C442.461 154.239 431.87 146.951 420.02 141.865C408.171 136.779 395.115 134 381.273 134C372.517 134 363.498 135.101 354.27 137.513C343.627 140.292 333.769 144.906 324.961 150.988C311.8 160.111 301.052 172.485 293.606 186.59C286.161 200.694 281.966 216.633 281.966 232.835C281.966 237.029 282.228 241.276 282.805 245.471C286.266 270.848 289.517 296.278 292.61 321.707C292.767 323.228 293.082 324.539 293.554 325.745C293.921 326.636 294.34 327.475 294.917 328.157C295.337 328.681 295.861 329.153 296.438 329.572C297.277 330.149 298.273 330.568 299.374 330.831C300.475 331.093 301.628 331.198 302.992 331.198C303.044 331.198 303.149 331.198 303.201 331.198C315.313 331.093 327.425 331.093 339.484 331.093C353.536 331.093 367.536 331.145 381.588 331.145C381.85 331.145 382.164 331.145 382.426 331.145C396.164 331.145 409.901 331.093 423.638 331.093C435.016 331.093 446.394 331.145 457.772 331.355C457.929 331.355 458.139 331.355 458.296 331.355C460.183 331.355 461.861 331.198 463.382 330.726C464.483 330.411 465.479 329.939 466.37 329.258C467 328.786 467.576 328.209 468.101 327.527C468.835 326.531 469.359 325.43 469.726 324.119C470.093 322.861 470.355 321.445 470.513 319.872C473.029 295.072 475.546 270.324 478.902 245.681C479.531 241.171 479.793 236.715 479.793 232.31C479.846 205.727 469.044 181.137 451.322 163.205ZM470.67 244.58C467.209 269.957 464.588 296.068 462.228 319.033C462.071 320.449 461.861 321.34 461.704 321.865C461.599 322.127 461.547 322.337 461.442 322.389C461.389 322.441 461.389 322.494 461.389 322.494C461.337 322.494 461.232 322.546 461.075 322.651C460.76 322.756 460.341 322.861 459.816 322.861C459.292 322.913 458.768 322.913 458.296 322.913C458.191 322.913 458.034 322.913 457.929 322.913C447.967 322.756 437.113 322.651 423.638 322.651C416.77 322.651 409.796 322.651 403.032 322.704C396.269 322.704 389.295 322.756 382.479 322.756H381.64C374.929 322.756 368.112 322.756 361.506 322.756C354.323 322.756 346.877 322.756 339.537 322.756C325.275 322.756 313.688 322.808 303.149 322.861C303.096 322.861 303.044 322.861 303.044 322.861C302.31 322.861 301.733 322.808 301.419 322.756H301.366C301.314 322.704 301.314 322.599 301.261 322.494C301.156 322.127 301.052 321.55 300.947 320.711C297.801 294.495 294.498 268.803 291.142 244.317C290.618 240.49 290.355 236.61 290.355 232.782C290.355 225.914 291.194 218.993 292.82 212.124C295.337 201.69 299.636 191.78 305.561 182.71C317.83 164.044 335.867 150.831 356.368 145.483C364.704 143.333 373.041 142.232 381.273 142.232C394.643 142.232 407.437 145.063 419.339 150.621C425.054 153.347 430.507 156.598 435.54 160.373C440.521 164.149 445.135 168.396 449.225 173.114C453.367 177.833 456.985 182.972 460.026 188.425C463.12 193.93 465.636 199.75 467.472 205.78C470.146 214.431 471.509 223.292 471.509 232.258C471.509 236.4 471.247 240.49 470.67 244.58ZM465.532 335.445C465.06 335.025 464.535 334.658 464.011 334.396C463.172 333.976 462.281 333.714 461.284 333.557C460.288 333.4 459.24 333.347 458.139 333.347C458.034 333.347 457.929 333.347 457.824 333.347C453.42 333.4 449.015 333.4 444.611 333.4C438.844 333.4 433.076 333.4 427.308 333.4V333.347H425.578C419.758 333.347 413.886 333.242 408.013 333.242C403.347 333.242 398.68 333.295 393.962 333.557C392.598 333.609 391.287 333.819 389.977 334.239C388.98 334.501 388.037 334.92 387.145 335.392C385.782 336.126 384.576 337.122 383.685 338.381C383.265 339.01 382.898 339.744 382.636 340.531C382.374 341.317 382.269 342.156 382.269 343.047C382.269 343.624 382.322 344.253 382.426 344.882C382.689 346.298 383.265 347.609 383.947 348.762C384.996 350.493 386.254 351.961 387.46 353.376C388.666 354.792 389.819 356.103 390.553 357.466C391.969 359.983 392.913 362.814 393.49 365.75C394.066 368.687 394.276 371.78 394.276 374.821C394.276 375.45 394.276 376.08 394.224 376.709C394.171 378.701 394.014 380.694 393.752 382.581C393.437 384.469 393.018 386.356 392.336 388.087C391.602 389.974 390.658 391.442 389.557 392.805C388.771 393.802 387.879 394.745 387.04 395.689C386.411 396.371 385.73 397.105 385.153 397.839C384.209 398.94 383.37 400.146 382.741 401.562C382.112 402.977 381.745 404.603 381.745 406.49C381.745 408.378 382.112 410.528 382.951 412.992C383.16 413.569 383.37 414.198 383.685 414.775C383.999 415.404 384.419 416.033 385.048 416.557C385.415 416.872 385.835 417.186 386.202 417.396C386.831 417.711 387.46 417.92 388.037 418.078C388.613 418.235 389.19 418.34 389.767 418.445C395.43 419.389 401.145 419.598 406.755 419.598C411.474 419.598 416.193 419.441 420.807 419.389C431.922 419.231 441.989 415.037 449.54 408.063C457.09 401.142 462.176 391.442 463.382 380.379C464.693 368.215 465.531 355.998 467.314 344.043C467.471 342.995 467.576 342.051 467.576 341.212C467.576 339.849 467.367 338.643 466.947 337.594C466.633 336.703 466.161 336.021 465.532 335.445ZM459.187 342.733C457.929 351.122 457.09 359.616 456.356 367.795C455.989 371.623 455.622 375.555 455.202 379.435C454.206 388.506 450.116 396.318 444.034 401.876C437.9 407.486 429.825 410.842 420.754 410.999C418.972 410.999 417.189 411.052 415.511 411.104C412.627 411.157 409.691 411.209 406.807 411.209C400.411 411.209 395.587 410.895 391.183 410.161C391.078 410.161 390.973 410.108 390.868 410.108C390.291 408.325 390.134 407.119 390.134 406.385C390.134 405.966 390.186 405.704 390.239 405.494C390.239 405.389 390.291 405.337 390.291 405.232C390.291 405.179 390.344 405.127 390.344 405.022C390.449 404.812 390.553 404.55 390.711 404.288C390.973 403.869 391.287 403.449 391.707 402.925C392.126 402.401 392.651 401.876 393.227 401.247C395.377 398.94 398.261 395.846 400.149 391.075C401.145 388.506 401.774 385.937 402.089 383.525C402.456 381.113 402.56 378.806 402.613 376.866C402.613 376.132 402.665 375.45 402.665 374.769C402.665 370.469 402.298 366.537 401.512 362.971C400.725 359.406 399.519 356.208 397.894 353.272C396.688 351.069 395.167 349.339 393.752 347.766C392.913 346.77 392.126 345.931 391.602 345.145C391.34 344.778 391.13 344.41 390.973 344.096C390.816 343.781 390.711 343.519 390.658 343.257C390.606 343.1 390.606 342.995 390.606 342.942C390.658 342.89 390.763 342.785 390.92 342.68C391.235 342.471 391.759 342.261 392.389 342.103C393.018 341.946 393.699 341.841 394.433 341.789C398.366 341.579 402.665 341.474 408.013 341.474C410.897 341.474 413.886 341.527 416.77 341.527C419.391 341.527 422.065 341.579 424.739 341.579C425.001 341.632 425.316 341.632 425.631 341.632C428.777 341.632 432.027 341.632 435.121 341.632C438.267 341.632 441.465 341.632 444.663 341.632C449.802 341.632 454.049 341.632 457.981 341.579C458.034 341.579 458.139 341.579 458.191 341.579C458.663 341.579 459.03 341.579 459.292 341.632C459.24 341.946 459.24 342.313 459.187 342.733Z" fill="white"/>
</svg>
