<svg width="750" height="750" viewBox="0 0 750 750" fill="none" xmlns="http://www.w3.org/2000/svg">
<rect width="750" height="750" fill="#232323"/>
<path d="M236.04 432.42L239.815 434.466L242.175 430.061L238.347 428.016L236.04 432.42ZM245.164 424.555L247.523 420.15L243.696 418.105L241.336 422.51L245.164 424.555ZM558.267 546.209C557.165 538.501 553.075 531.474 546.993 526.598C535.404 517.264 523.71 516.687 510.182 523.871C505.148 526.545 499.17 529.639 493.874 529.272C474.944 527.856 458.426 518.68 441.122 510.552C440.807 510.395 440.807 509.923 441.122 509.765C454.598 503.578 468.127 498.439 481.708 493.353C490.727 489.997 499.537 491.989 508.294 494.611C511.073 495.45 513.905 496.341 516.789 496.918C530.58 499.645 543.322 494.192 549.51 483.022C555.12 472.902 552.866 458.954 543.165 449.41C539.284 445.582 537.973 441.964 538.131 436.615C538.655 420.203 526.804 406.674 510.758 404.681C493.612 402.531 478.719 412.547 475.311 429.274C473.423 438.661 468.861 446.054 460.471 449.882C440.493 458.954 420.147 467.344 399.906 475.839C394.715 477.988 388.685 477.412 386.168 472.483C384.437 469.074 382.602 463.358 384.962 459.95C385.958 458.482 387.374 457.328 388.422 455.912C390.625 452.923 390.52 434.518 391.778 429.222C392.198 427.334 391.621 424.24 389.419 423.978C386.744 423.663 384.018 423.506 381.343 423.506C379.665 423.506 375.523 422.929 374.055 423.873C371.852 425.237 371.957 430.638 372.114 432.945C372.796 444.062 374.107 455.178 374.894 466.295C375.733 477.831 384.28 485.854 395.868 484.963C400.43 484.648 405.045 483.39 409.292 481.659C423.136 476.101 436.665 469.861 450.508 464.302C467.707 457.381 480.974 447.522 484.854 427.701C487.057 416.48 500.9 410.502 513.328 413.7C523.553 416.322 531.786 428.121 529.426 438.398C527.853 445.268 528.849 449.41 535.037 453.5C543.322 459.006 545.787 469.756 542.273 478.303C539.179 485.802 530.108 490.206 520.092 488.843C516.946 488.423 513.747 487.899 510.811 486.798C495.919 481.03 481.498 483.285 467.288 489.21C456.014 493.877 444.792 498.858 433.361 503.106C429.743 504.417 424.866 505.203 421.51 503.892C400.063 495.398 378.669 486.745 357.327 477.988C348.99 474.58 312.965 460.422 310.186 458.167C309.452 457.59 304.628 453.395 304.733 452.661L305.519 448.781L298.335 444.953C300.695 438.87 298.178 431.791 292.252 428.645L260.161 411.498C259.794 411.288 259.322 411.446 259.112 411.813L257.591 414.697L237.665 404.052C237.298 403.842 236.826 404 236.617 404.367L220.571 434.466C220.361 434.833 220.518 435.305 220.885 435.514L240.812 446.159L239.291 448.991C239.081 449.358 239.238 449.83 239.605 450.039L271.697 467.186C277.57 470.333 284.806 468.55 288.634 463.201L295.818 467.029L297.863 463.254C297.863 463.254 304.733 465.141 308.193 466.557C337.139 478.46 366.137 490.154 395.082 501.952C401.951 504.784 408.716 507.825 415.585 510.762C404.049 515.429 392.722 520.515 381.029 524.658C378.459 525.601 374.789 524.448 371.905 523.399C362.046 519.781 352.136 516.163 342.592 511.81C333.625 507.72 325.183 508.14 316.374 511.863C304.261 517.054 292.043 522.088 279.825 527.07C267.555 532.104 255.284 532.995 242.857 527.227C238.662 525.287 234.152 523.976 229.642 522.98C216.848 520.253 200.802 527.489 194.929 538.344C189.266 548.726 191.888 562.308 202.165 572.428C206.622 576.78 208.825 581.185 209.192 587.635C210.398 610.445 233.89 623.344 253.396 611.546C259.689 607.771 265.3 601.059 268.498 594.399C274.004 582.915 282.761 575.889 293.721 571.169C319.992 559.843 346.315 548.726 372.744 537.819C375.837 536.561 380.242 536.036 383.231 537.19C409.764 547.887 436.14 558.899 462.464 570.068C473.685 574.84 482.023 582.811 487.214 593.98C488.525 596.864 490.413 599.486 492.143 602.107C499.013 612.647 509.08 616.842 521.193 615.059C528.377 614.011 535.561 610.445 539.547 604.205C544.371 596.602 541.539 587.477 544.476 579.245C546.993 572.271 553.337 570.75 556.746 565.087C559.892 559.633 559.158 552.24 558.267 546.209ZM244.167 441.387L228.017 432.735L239.501 411.288L255.651 419.94L244.167 441.387ZM280.874 447.26C280.192 448.571 278.514 449.043 277.203 448.361C276.102 447.785 275.577 446.579 275.84 445.425L274.896 444.901L270.648 447.68L268.026 446.264C267.607 446.474 267.083 446.474 266.611 446.264C265.877 445.897 265.562 444.953 265.981 444.166C266.401 443.432 267.345 443.17 268.079 443.537C268.341 443.695 268.551 443.904 268.708 444.114V444.166C268.813 444.429 268.918 444.691 268.918 444.953L270.806 445.949L272.641 444.743L273.532 444.166L270.91 442.751L265.457 439.814L264.933 440.758L264.67 441.178L263.831 439.814L262.678 437.979L262.153 437.087L263.727 437.035L265.929 436.983H266.978L266.244 438.398L270.491 440.706L272.431 441.754V440.706V438.503L270.91 437.717L270.701 438.136L268.498 436.983L269.704 434.78L271.907 435.934L271.645 436.406L273.795 437.559L273.847 442.593L276.731 444.114C277.57 443.38 278.776 443.17 279.772 443.747C281.083 444.271 281.608 445.949 280.874 447.26ZM293.406 459.216L290.365 457.59L294.769 449.358L297.811 450.983L293.406 459.216ZM339.498 542.801C323.138 549.827 306.725 556.802 290.312 563.776C276.783 569.544 266.348 578.091 260.266 592.144C258.116 597.126 253.554 602.16 248.782 604.729C232.474 613.539 215.484 601.321 217.267 582.234C217.792 576.308 216.638 572.952 211.499 569.701C202.113 563.723 198.337 552.24 201.851 543.64C205.207 535.46 216.743 529.796 227.125 531.474C230.953 532.104 234.834 533.048 238.295 534.726C254.288 542.434 270.071 540.494 285.803 533.991C297.077 529.325 308.403 524.815 319.572 519.938C326.284 517.002 332.524 516.792 339.341 519.833C348.255 523.766 357.484 526.965 366.556 530.583C366.556 530.898 366.556 530.898 366.556 531.212C357.589 534.988 348.57 538.921 339.498 542.801ZM539.075 570.645C534.46 573.11 533.674 575.836 534.46 580.661C535.142 584.646 534.88 588.998 533.988 592.931C532.363 600.062 528.115 605.254 520.407 606.669C512.594 608.138 505.882 605.778 500.533 599.957C498.593 597.808 496.915 595.238 495.814 592.616C488.735 575.574 475.049 565.978 458.741 559.214C437.976 550.614 417.21 542.067 396.445 533.467C395.292 532.995 394.19 532.313 392.355 531.212C391.673 530.845 391.778 529.849 392.46 529.587C404.049 524.71 414.431 520.096 425.024 516.268C427.488 515.376 431.211 516.949 434.043 518.05C447.047 523.084 459.842 528.538 472.846 533.467C487.371 538.973 501.425 539.707 515.635 530.95C530.58 521.669 549.09 532.313 550.086 549.932C550.611 558.899 547.15 566.345 539.075 570.645Z" fill="#666666"/>
<mask id="mask0_601_63" style="mask-type:luminance" maskUnits="userSpaceOnUse" x="283" y="135" width="196" height="283">
<path d="M370.122 388.216C367.448 382.343 366.976 375.631 367.291 369.286C367.448 365.406 367.92 361.42 369.388 357.855C371.486 352.821 385.277 342.438 376.362 336.88C371.748 333.996 365.665 334.992 360.526 334.992C354.234 334.992 347.889 335.044 341.596 335.044C340.443 335.044 339.289 335.044 338.136 335.044C326.652 335.097 315.168 335.097 303.737 335.097C299.07 335.097 296.238 336.46 296.972 341.966C298.755 355.023 300.066 368.132 302.006 381.137C305.415 403.423 321.251 417.214 343.641 417.685C351.192 417.843 358.796 417.685 366.347 417.685C379.561 417.685 380.61 416.742 378.984 403.58C378.355 398.179 372.325 393.092 370.122 388.216ZM391.307 383.811C391.936 377.047 391.831 370.125 391.307 363.361C390.887 357.855 387.374 354.132 381.711 354.236C375.733 354.341 372.429 358.222 371.853 364.042C371.538 367.188 371.8 370.387 371.8 373.586C371.8 376.784 371.538 379.983 371.853 383.129C372.377 388.53 374.789 392.411 380.872 392.725C387.059 392.935 390.783 389.579 391.307 383.811ZM354.758 139.139C308.823 151.042 278.2 198.445 284.597 245.219C288.058 270.599 291.309 296.031 294.403 321.516C295.085 327.179 297.287 329.538 303.212 329.486C329.379 329.276 355.492 329.381 381.658 329.381C407.09 329.381 432.47 329.119 457.902 329.538C465.506 329.643 468.18 326.917 468.914 319.68C471.431 294.877 473.948 270.127 477.304 245.429C486.218 179.253 426.073 120.681 354.758 139.139ZM457.902 335.044C447.153 335.149 436.403 335.097 425.653 335.097V335.044C415.113 335.044 404.626 334.73 394.138 335.254C388.842 335.516 383.074 338.348 384.228 344.536C385.119 349.36 389.839 352.506 392.146 356.596C395.502 362.626 396.236 369.968 396.079 376.732C395.974 380.822 395.554 384.912 394.034 388.688C390.101 398.651 380.243 399.175 384.647 412.442C385.014 413.491 385.434 414.539 386.273 415.273C387.322 416.217 388.737 416.479 390.101 416.742C400.274 418.42 410.604 417.79 420.881 417.633C442.276 417.318 459.528 401.482 461.783 380.14C463.093 367.975 463.932 355.757 465.768 343.697C466.764 336.775 463.932 334.992 457.902 335.044Z" fill="white"/>
</mask>
<g mask="url(#mask0_601_63)">
<path fill-rule="evenodd" clip-rule="evenodd" d="M276.678 177.909L282.642 182.68C282.92 182.902 283.132 183.071 283.286 183.186L283.494 183.343L283.679 183.527C287.067 186.915 290.458 190.3 293.848 193.685C300.626 200.451 307.401 207.215 314.149 213.998C314.306 214.155 314.432 214.3 314.525 214.412C314.615 214.521 314.695 214.625 314.735 214.676C314.745 214.689 314.753 214.699 314.76 214.709C314.767 214.718 314.773 214.725 314.779 214.732L315.899 215.853L315.789 217.515C315.745 218.161 315.744 218.777 315.744 219.525V474.685H276.678V177.909ZM284.02 194.246C285.571 195.796 287.123 197.344 288.673 198.892C295.265 205.473 301.845 212.041 308.406 218.634C308.403 218.933 308.403 219.218 308.403 219.485V467.344H284.02V194.246Z" fill="#666666"/>
<path fill-rule="evenodd" clip-rule="evenodd" d="M485.222 180.399V474.685H446.366V471.014C446.366 470.913 446.363 470.852 446.36 470.753C446.356 470.665 446.352 470.549 446.347 470.35C446.34 470.056 446.337 469.682 446.366 469.254V219.263C446.366 219.138 446.369 219.025 446.372 218.935C446.373 218.903 446.374 218.87 446.376 218.839L445.835 217.756L446.505 216.192C446.856 215.374 447.369 214.825 447.638 214.557C447.773 214.422 447.903 214.303 447.973 214.24L447.982 214.231C448.056 214.164 448.072 214.148 448.072 214.148L478.062 184.158C478.062 184.158 478.078 184.142 478.145 184.068L478.153 184.059C478.216 183.99 478.336 183.859 478.471 183.724C478.739 183.456 479.288 182.942 480.105 182.592L485.222 180.399ZM453.707 467.344H477.881V194.722L453.721 218.881C453.72 218.933 453.718 218.978 453.716 219.016L453.715 219.03C453.708 219.195 453.707 219.23 453.707 219.263V467.344Z" fill="#666666"/>
<path fill-rule="evenodd" clip-rule="evenodd" d="M314.66 214.666C314.668 214.672 314.678 214.68 314.69 214.689C314.694 214.692 314.699 214.696 314.705 214.701C314.749 214.734 314.837 214.801 314.919 214.867C315.016 214.945 315.177 215.078 315.351 215.252L348.684 248.585C349.187 249.02 349.526 249.481 349.645 249.642C349.656 249.656 349.664 249.668 349.671 249.677L350.405 250.656V252.324L350.387 252.507C350.355 252.824 350.353 253.122 350.353 253.61V469.703C350.353 469.815 350.359 469.933 350.373 470.17L350.374 470.196C350.387 470.406 350.405 470.721 350.405 471.067V474.737H308.403V219.578C308.403 219.114 308.418 218.674 308.431 218.308L308.431 218.302C308.445 217.915 308.455 217.614 308.455 217.323V208.461L314.66 214.666ZM315.744 226.027L343.012 253.295C343.012 253.391 343.012 253.481 343.012 253.566L343.012 467.396H315.744V226.027Z" fill="#666666"/>
<path fill-rule="evenodd" clip-rule="evenodd" d="M451.374 212.578L453.11 216.048C453.578 216.984 453.66 217.863 453.673 218.415C453.68 218.685 453.669 218.93 453.664 219.069L453.663 219.083C453.656 219.247 453.654 219.283 453.654 219.315V469.441C453.654 469.596 453.662 469.767 453.676 470.044L453.678 470.073C453.69 470.318 453.707 470.659 453.707 471.014V474.685H450.036C438.551 474.685 427.076 474.685 415.654 474.737L413.374 474.748L412.425 472.85C412.365 472.755 412.281 472.613 412.197 472.446L411.81 471.671V253.714C411.81 253.559 411.802 253.389 411.788 253.111L411.786 253.083C411.774 252.838 411.757 252.496 411.757 252.141V250.621L412.633 249.745C412.652 249.72 412.672 249.694 412.695 249.666C413.113 249.106 413.565 248.654 413.835 248.386C413.851 248.37 413.866 248.354 413.881 248.34L446.34 215.881C446.364 215.856 446.386 215.834 446.428 215.79C446.445 215.772 446.466 215.751 446.492 215.724C446.566 215.647 446.678 215.532 446.807 215.408C447.067 215.16 447.466 214.811 448.005 214.503L451.374 212.578ZM412.505 472.972C412.512 472.983 412.51 472.98 412.501 472.966L412.505 472.972ZM446.313 226.289L419.148 253.455C419.15 253.539 419.151 253.626 419.151 253.714V467.382C428.187 467.348 437.251 467.344 446.313 467.344V226.289Z" fill="#666666"/>
<path fill-rule="evenodd" clip-rule="evenodd" d="M419.31 245.761V252.141C419.31 252.301 419.318 252.476 419.331 252.753L419.333 252.78C419.344 253.026 419.361 253.363 419.361 253.714V470.235L421.512 474.737H378.197V288.008C378.197 287.643 378.213 287.276 378.224 286.993L378.226 286.964C378.239 286.648 378.247 286.424 378.247 286.225V283.618L380.177 282.945C380.205 282.915 380.235 282.884 380.266 282.851L380.282 282.835L380.297 282.819C390.815 272.073 401.383 261.328 411.948 250.587C411.978 250.555 412.016 250.512 412.089 250.43L412.103 250.414C412.175 250.333 412.293 250.199 412.422 250.064C412.72 249.752 413.165 249.334 413.795 248.968L419.31 245.761ZM412.019 260.984C403.184 269.968 394.356 278.951 385.564 287.933C385.557 287.94 385.55 287.949 385.539 287.961C385.539 287.977 385.538 287.993 385.538 288.008V467.396H412.019V260.984ZM419.277 471.599C419.277 471.599 419.277 471.599 419.277 471.599C419.271 471.627 419.27 471.633 419.277 471.599Z" fill="#666666"/>
<path fill-rule="evenodd" clip-rule="evenodd" d="M346.865 248.484C347.862 248.484 348.651 248.863 349.199 249.29C349.597 249.591 349.938 249.923 350.077 250.058C350.087 250.068 350.095 250.076 350.103 250.083L383.654 282.631C384.167 283.062 384.516 283.52 384.64 283.683C384.65 283.697 384.659 283.709 384.667 283.718L385.433 284.71V474.79H343.462L343.089 471.537C343.011 470.854 343.011 470.254 343.012 469.809L343.012 253.662C343.012 253.291 343.03 252.951 343.044 252.717L343.044 252.704C343.059 252.438 343.066 252.308 343.066 252.194V249.894L345.134 248.891C345.137 248.89 345.139 248.889 345.141 248.888C345.311 248.805 345.973 248.484 346.865 248.484ZM350.353 260.554V467.449H378.092V287.464L350.353 260.554Z" fill="#666666"/>
<path fill-rule="evenodd" clip-rule="evenodd" d="M276.626 155.989L280.629 156.353C281.979 156.476 282.914 157.126 283.466 157.637C283.708 157.861 283.898 158.079 283.982 158.175L283.986 158.18C284.037 158.238 284.062 158.267 284.071 158.278L381.082 255.289C396.955 239.44 412.815 223.58 428.677 207.718L428.694 207.701C444.988 191.407 461.284 175.111 477.592 158.829C477.591 158.83 477.583 158.839 477.724 158.682C477.824 158.57 478.028 158.343 478.284 158.111C478.846 157.604 479.807 156.938 481.194 156.823L485.169 156.492V188.386L483.397 189.145C483.396 189.147 483.394 189.148 483.393 189.15C483.342 189.204 483.277 189.273 483.203 189.347L453.209 219.342C453.155 219.395 453.105 219.444 453.064 219.483L452.957 219.586C452.943 219.6 452.931 219.612 452.92 219.623L452.403 220.527L451.725 220.817C451.724 220.819 451.722 220.82 451.721 220.822C451.67 220.876 451.605 220.945 451.531 221.02L419.072 253.478C419.041 253.509 418.994 253.562 418.833 253.752C418.741 253.86 418.591 254.039 418.409 254.236C418.376 254.281 418.334 254.335 418.285 254.395C418.222 254.471 418.135 254.573 418.023 254.684L417.728 254.98L417.499 255.123C417.46 255.163 417.42 255.207 417.347 255.287L417.323 255.313C417.245 255.399 417.117 255.538 416.974 255.681L384.73 287.925C384.729 287.926 384.71 287.947 384.636 288.03C384.563 288.111 384.401 288.293 384.207 288.48C383.8 288.87 383.035 289.499 381.877 289.756L379.91 290.193L378.862 289.145L378.784 289.119L378.171 288.506C377.965 288.3 377.798 288.107 377.711 288.007C377.677 287.968 377.657 287.945 377.643 287.928C377.635 287.92 377.629 287.913 377.624 287.906L344.831 255.113L344.752 255.087L344.586 254.921L344.101 254.558L343.975 254.305C343.847 254.169 343.745 254.051 343.682 253.978L343.658 253.95C343.623 253.91 343.607 253.892 343.592 253.875L310.217 220.5C310.212 220.496 310.206 220.491 310.2 220.487C310.189 220.478 310.177 220.469 310.161 220.456L310.152 220.449C310.098 220.407 310 220.331 309.897 220.246C309.784 220.152 309.637 220.024 309.478 219.866L309.335 219.722L309.208 219.563C309.166 219.512 309.123 219.457 309.088 219.412C309.074 219.395 309.061 219.38 309.051 219.366C309.007 219.311 308.977 219.274 308.952 219.243C308.906 219.188 308.896 219.178 308.901 219.184C305.504 215.787 302.114 212.391 298.728 208.999C291.967 202.226 285.218 195.466 278.442 188.725L278.439 188.722L278.435 188.718C278.436 188.719 278.428 188.711 278.407 188.692C278.386 188.673 278.358 188.648 278.319 188.616C278.236 188.546 278.142 188.47 278.004 188.36L276.626 187.258V155.989ZM343.732 253.819C343.727 253.81 343.722 253.801 343.719 253.794C343.699 253.757 343.697 253.749 343.714 253.783L343.732 253.819ZM418.56 254.02C418.565 254.013 418.568 254.008 418.56 254.02V254.02ZM477.828 168.968C463.177 183.6 448.536 198.241 433.894 212.883L433.885 212.892C417.591 229.186 401.296 245.481 384.988 261.763C384.967 261.784 384.946 261.805 384.924 261.827C384.659 262.093 384.283 262.469 383.92 262.762C383.559 263.054 382.588 263.798 381.163 263.827C379.695 263.857 378.685 263.116 378.291 262.804C377.919 262.509 377.541 262.13 377.289 261.878C377.268 261.856 377.247 261.835 377.227 261.816L283.967 168.556V183.866C290.635 190.501 297.284 197.162 303.936 203.825C307.32 207.215 310.704 210.605 314.092 213.993C314.34 214.241 314.562 214.505 314.724 214.705C314.779 214.748 314.854 214.807 314.932 214.872C315.045 214.965 315.192 215.093 315.351 215.252L348.806 248.707C348.914 248.815 349.005 248.915 349.07 248.987C349.096 249.017 349.123 249.048 349.148 249.076C349.353 249.24 349.525 249.411 349.67 249.576C349.857 249.737 350.077 249.945 350.291 250.192L381.186 281.087L411.783 250.49C411.798 250.474 411.828 250.444 411.91 250.354C411.975 250.282 412.095 250.151 412.22 250.021C412.366 249.869 412.574 249.661 412.841 249.441C412.884 249.392 412.934 249.339 412.989 249.283C413.021 249.252 413.068 249.2 413.229 249.01L413.25 248.984C413.382 248.828 413.613 248.555 413.881 248.287L446.337 215.831C446.337 215.83 446.353 215.814 446.42 215.74C446.48 215.674 446.604 215.537 446.746 215.396C446.863 215.279 447.033 215.115 447.256 214.939C447.361 214.815 447.459 214.708 447.545 214.618C447.668 214.489 447.784 214.377 447.861 214.303C447.927 214.238 447.961 214.206 447.988 214.18C447.998 214.17 448.008 214.16 448.017 214.151L477.828 184.34V168.968Z" fill="#666666"/>
<path fill-rule="evenodd" clip-rule="evenodd" d="M276.678 132.06H287.043L286.316 134.966C288.343 136.956 290.381 139.001 292.398 141.025C294.121 142.755 295.83 144.469 297.502 146.12C299.039 147.63 300.56 149.164 302.061 150.678L302.069 150.687C303.578 152.209 305.068 153.711 306.567 155.185C308.94 157.505 311.258 159.823 313.56 162.125L313.576 162.141L313.585 162.15C318.201 166.826 322.824 171.44 327.453 176.061C330.935 179.536 334.419 183.014 337.907 186.525L337.911 186.528C343.515 192.184 349.119 197.789 354.784 203.453L381.133 229.803L415.454 195.483C422.237 188.699 429.025 181.917 435.815 175.134C449.284 161.676 462.758 148.214 476.211 134.727L475.988 132.06H485.221V164.204H482.704C450.132 196.723 417.561 229.295 385.04 261.816C385.02 261.836 384.998 261.857 384.976 261.879C384.711 262.145 384.335 262.522 383.972 262.815C383.611 263.106 382.64 263.851 381.215 263.88C379.748 263.91 378.737 263.169 378.343 262.857C377.972 262.562 377.593 262.183 377.342 261.931C377.32 261.909 377.299 261.888 377.279 261.868L309.478 194.067C306.084 190.673 302.693 187.276 299.3 183.877C292.592 177.158 285.881 170.435 279.144 163.732H276.678V132.06ZM284.02 143.023V158.206C284.031 158.22 284.041 158.232 284.049 158.242C284.054 158.248 284.059 158.253 284.063 158.258C284.095 158.297 284.115 158.32 284.126 158.332C290.937 165.109 297.729 171.912 304.508 178.703C307.898 182.099 311.285 185.491 314.669 188.876L381.133 255.34C413.255 223.219 445.428 191.046 477.602 158.924C477.614 158.909 477.636 158.884 477.668 158.845L477.68 158.83C477.721 158.78 477.79 158.695 477.88 158.593V143.447C465.595 155.757 453.292 168.049 440.997 180.334C434.209 187.116 427.423 193.895 420.645 200.674L384.673 236.646C384.658 236.661 384.642 236.676 384.625 236.694C384.442 236.878 384.125 237.195 383.81 237.448C383.486 237.706 382.538 238.429 381.133 238.429C379.729 238.429 378.78 237.706 378.457 237.448C378.142 237.195 377.825 236.878 377.642 236.694C377.625 236.677 377.609 236.661 377.594 236.646L349.588 208.64C343.928 202.98 338.313 197.365 332.697 191.696C329.265 188.242 325.792 184.775 322.309 181.299C317.653 176.651 312.98 171.987 308.369 167.316C306.062 165.009 303.772 162.719 301.432 160.431L301.429 160.428L301.425 160.425C299.888 158.913 298.366 157.379 296.864 155.864L296.856 155.855C295.345 154.332 293.855 152.828 292.354 151.353L292.348 151.347C290.562 149.584 288.831 147.847 287.111 146.12C286.08 145.085 285.053 144.054 284.02 143.023Z" fill="#666666"/>
<path fill-rule="evenodd" clip-rule="evenodd" d="M310.505 134.637L310.747 131.981L306.701 132.008C298.587 132.06 290.471 132.06 282.342 132.06H279.101L278.699 135.275C278.406 137.623 280.026 139.095 280.204 139.256C280.211 139.263 280.216 139.268 280.218 139.27L280.235 139.287L280.252 139.303C283.298 142.271 286.278 145.261 289.288 148.281C290.298 149.294 291.311 150.311 292.331 151.33L292.342 151.342L292.354 151.353C293.855 152.828 295.345 154.332 296.856 155.855L296.864 155.863C298.362 157.374 299.88 158.906 301.414 160.413C302.571 161.57 303.74 162.726 304.9 163.873L304.905 163.878C306.068 165.028 307.223 166.17 308.364 167.311C314.106 173.166 319.936 178.974 325.752 184.768C328.073 187.081 330.392 189.391 332.702 191.701C335.512 194.537 338.334 197.359 341.149 200.174L341.15 200.176C343.97 202.995 346.782 205.808 349.581 208.632L349.587 208.638L377.594 236.646C377.609 236.661 377.625 236.677 377.642 236.694C377.825 236.878 378.142 237.195 378.457 237.448C378.78 237.706 379.729 238.429 381.133 238.429C382.538 238.429 383.486 237.706 383.81 237.448C384.125 237.195 384.442 236.878 384.625 236.694C384.642 236.676 384.658 236.661 384.673 236.646L481.712 139.607C481.722 139.599 481.753 139.571 481.826 139.508L481.834 139.501C481.941 139.41 482.195 139.191 482.448 138.908C482.725 138.6 483.075 138.137 483.328 137.504C483.592 136.845 483.695 136.139 483.636 135.426L483.355 132.06H452.217L452.019 134.429L381.133 205.315L332.917 157.099C325.443 149.625 317.974 142.155 310.505 134.637ZM290.794 139.399C292.039 140.642 293.28 141.886 294.517 143.128C295.516 144.13 296.514 145.131 297.511 146.128C299.045 147.636 300.562 149.167 302.061 150.678L302.069 150.687C303.58 152.21 305.07 153.714 306.571 155.189L306.582 155.2L306.594 155.211C307.739 156.356 308.898 157.502 310.066 158.657L310.07 158.661C311.234 159.812 312.407 160.972 313.568 162.133L313.581 162.145L313.593 162.158C319.307 167.984 325.094 173.75 330.902 179.537C333.232 181.858 335.565 184.183 337.899 186.516L337.905 186.522L337.911 186.528C340.709 189.353 343.522 192.165 346.341 194.985L346.343 194.986C349.158 197.801 351.98 200.623 354.79 203.459C354.792 203.461 354.794 203.463 354.796 203.465L381.133 229.803L471.536 139.401H457.486C457.415 139.462 457.354 139.512 457.306 139.551C457.261 139.588 457.206 139.632 457.17 139.661L384.83 212C384.792 212.038 384.723 212.109 384.639 212.195C384.449 212.39 384.185 212.661 384.052 212.786C384.049 212.789 384.043 212.795 384.036 212.802C383.872 212.962 382.797 214.019 381.133 214.019C379.469 214.019 378.394 212.962 378.231 212.802C378.224 212.795 378.218 212.789 378.215 212.786C378.082 212.66 377.818 212.39 377.627 212.195C377.544 212.109 377.474 212.038 377.437 212L327.722 162.286C320.139 154.702 312.55 147.113 304.96 139.472C304.945 139.459 304.921 139.439 304.886 139.409L304.877 139.402C304.863 139.39 304.847 139.376 304.828 139.36C300.148 139.386 295.47 139.395 290.794 139.399Z" fill="#666666"/>
<path fill-rule="evenodd" clip-rule="evenodd" d="M303.055 132.06H334.918L334.679 134.69C342.043 142.103 349.407 149.467 356.777 156.837L381.186 181.246C386.039 176.395 390.894 171.545 395.751 166.694C406.439 156.017 417.131 145.336 427.803 134.631V132.112H459.265V135.783C459.265 137.377 458.469 138.452 457.929 139.013C457.704 139.246 457.478 139.437 457.382 139.517L457.367 139.53C457.313 139.576 457.285 139.6 457.274 139.609L384.803 212.08L384.775 212.107C384.732 212.148 384.671 212.208 384.6 212.278C384.404 212.469 384.131 212.736 383.955 212.891C383.949 212.896 383.942 212.902 383.933 212.91C383.727 213.096 382.686 214.032 381.114 214.032C379.506 214.032 378.461 213.059 378.251 212.863C378.243 212.855 378.236 212.848 378.23 212.843C378.056 212.683 377.783 212.405 377.595 212.213C377.529 212.146 377.474 212.09 377.437 212.053L327.722 162.338L327.718 162.333C320.128 154.691 312.537 147.1 304.94 139.504C304.931 139.495 304.901 139.469 304.832 139.408L304.831 139.407C304.73 139.318 304.496 139.113 304.257 138.844C303.707 138.226 303.055 137.185 303.055 135.731V132.06ZM315.219 139.401C321.118 145.302 327.02 151.213 332.922 157.156C332.923 157.157 332.925 157.159 332.927 157.16L381.134 205.368L447.048 139.454H433.375C433.373 139.456 433.37 139.458 433.368 139.46L433.367 139.461C433.3 139.52 433.269 139.547 433.259 139.556C422.496 150.353 411.708 161.13 400.93 171.896C395.542 177.279 390.156 182.658 384.778 188.037C384.752 188.063 384.718 188.098 384.678 188.138C384.504 188.314 384.222 188.6 384 188.794L383.985 188.807C383.744 189.018 382.741 189.898 381.206 189.898C379.712 189.898 378.716 189.059 378.479 188.86C378.472 188.854 378.467 188.849 378.461 188.845C378.238 188.658 377.955 188.384 377.77 188.207C377.727 188.165 377.689 188.128 377.659 188.099L377.626 188.068L351.586 162.028L351.585 162.027C344.105 154.547 336.62 147.062 329.134 139.524C329.119 139.511 329.095 139.491 329.06 139.462L329.051 139.454C329.034 139.44 329.013 139.422 328.988 139.401H315.219Z" fill="#666666"/>
<path fill-rule="evenodd" clip-rule="evenodd" d="M327.176 132.06H330.849C364.408 132.06 397.917 132.06 431.427 132.112L435.092 132.118V135.783C435.092 137.237 434.439 138.278 433.889 138.897C433.651 139.165 433.417 139.371 433.316 139.46L433.315 139.461C433.246 139.521 433.216 139.548 433.206 139.556L384.726 188.037C384.701 188.062 384.671 188.091 384.638 188.124C384.454 188.31 384.159 188.608 383.903 188.826L383.895 188.833C383.638 189.052 382.644 189.898 381.134 189.898C379.624 189.898 378.629 189.052 378.372 188.833L378.365 188.826C378.109 188.608 377.813 188.31 377.629 188.124C377.596 188.091 377.567 188.062 377.542 188.037L351.529 162.023L351.524 162.019C344.039 154.481 336.553 146.995 329.062 139.504C329.052 139.495 329.022 139.469 328.953 139.408L328.952 139.407C328.851 139.318 328.617 139.113 328.378 138.844C327.829 138.226 327.176 137.185 327.176 135.731V132.06ZM339.341 139.401C345.135 145.197 350.931 151.003 356.729 156.841C356.73 156.843 356.732 156.844 356.733 156.846L381.134 181.246L422.939 139.441C395.087 139.405 367.231 139.402 339.341 139.401Z" fill="#666666"/>
<path d="M379.141 398.808C377.987 396.658 376.519 394.666 375.103 392.778C374.422 391.834 373.74 390.89 373.111 390.051C372.534 389.16 372.01 388.321 371.643 387.534C370.594 385.227 369.912 382.762 369.493 380.193C369.073 377.623 368.916 374.949 368.916 372.327C368.916 371.331 368.916 370.387 368.968 369.391C369.073 367.503 369.178 365.615 369.493 363.78C369.807 361.945 370.227 360.214 370.961 358.536C371.118 358.222 371.328 357.75 371.695 357.278C372.272 356.386 373.163 355.285 374.16 354.132C375.628 352.349 377.306 350.356 378.617 348.311C379.298 347.262 379.875 346.214 380.347 345.112C380.767 344.011 381.081 342.858 381.081 341.652C381.081 341.075 381.029 340.498 380.872 339.921C380.662 339.082 380.242 338.243 379.613 337.509C379.036 336.775 378.25 336.093 377.306 335.516C375.733 334.52 374.002 333.943 372.324 333.629C370.594 333.314 368.863 333.209 367.185 333.209C364.878 333.209 362.571 333.366 360.578 333.366C354.286 333.366 347.941 333.419 341.648 333.419C340.495 333.419 339.341 333.419 338.188 333.419C329.85 333.471 321.46 333.471 313.123 333.471C310.029 333.471 306.883 333.471 303.789 333.471H303.736C302.635 333.471 301.586 333.524 300.59 333.733C299.856 333.891 299.122 334.101 298.493 334.468C297.968 334.73 297.549 335.044 297.129 335.411C296.5 335.988 296.028 336.775 295.713 337.614C295.399 338.453 295.241 339.397 295.241 340.445C295.241 341.022 295.294 341.652 295.399 342.333C297.182 355.338 298.493 368.447 300.433 381.556C301.324 387.324 303.002 392.516 305.414 397.13C309.032 404.052 314.276 409.61 320.778 413.438C327.281 417.266 335.094 419.363 343.746 419.573C346.42 419.626 349.095 419.626 351.769 419.626C356.645 419.626 361.522 419.573 366.399 419.573H366.504C369.073 419.573 371.275 419.521 373.058 419.364C374.422 419.259 375.628 419.049 376.677 418.682C377.463 418.42 378.197 418.053 378.826 417.581C379.298 417.214 379.718 416.794 380.085 416.27C380.609 415.536 380.924 414.644 381.134 413.753C381.343 412.809 381.396 411.813 381.396 410.711C381.396 408.771 381.186 406.411 380.819 403.58C380.504 401.745 379.875 400.224 379.141 398.808ZM372.953 410.816C372.796 410.816 372.639 410.869 372.429 410.869C371.643 410.974 370.699 411.026 369.65 411.026C368.601 411.078 367.448 411.078 366.346 411.078H366.242C363.777 411.078 361.312 411.078 358.9 411.131C356.488 411.131 354.024 411.183 351.612 411.183C348.623 411.183 346.106 411.183 343.746 411.131C338.869 411.026 334.465 410.239 330.479 408.771C324.501 406.621 319.625 403.056 315.849 398.231C312.126 393.407 309.557 387.377 308.508 380.14C307.354 372.694 306.463 365.039 305.572 357.645C304.942 352.401 304.313 347 303.579 341.652C303.631 341.652 303.631 341.652 303.684 341.652H303.736C306.725 341.652 348.937 341.599 352.608 341.547C355.282 341.547 357.904 341.547 360.578 341.494C361.732 341.494 362.833 341.442 363.934 341.389C365.035 341.337 366.137 341.284 367.185 341.284C368.654 341.284 369.86 341.389 370.804 341.547C371.485 341.704 372.062 341.861 372.534 342.071C372.429 342.333 372.219 342.7 371.957 343.12C371.485 343.906 370.908 344.745 370.227 345.584C369.545 346.423 368.811 347.315 368.129 348.206C367.133 349.412 366.242 350.513 365.403 351.667C364.564 352.821 363.882 353.922 363.357 355.18C362.361 357.592 361.732 360.109 361.365 362.417C360.998 364.776 360.84 366.979 360.736 368.866C360.683 369.968 360.683 371.016 360.683 372.065C360.683 375.736 360.945 379.092 361.522 382.186C362.099 385.279 362.99 388.163 364.144 390.785C364.721 392.096 365.507 393.355 366.242 394.508C367.028 395.714 367.867 396.815 368.654 397.917C369.545 399.123 370.489 400.381 371.223 401.535C371.59 402.112 371.852 402.636 372.062 403.108C372.272 403.58 372.377 403.999 372.429 404.209C372.534 405.258 372.691 406.359 372.796 407.408C372.901 408.457 372.953 409.453 372.953 410.239C372.953 410.292 372.953 410.344 372.953 410.397C372.953 410.659 372.953 410.764 372.953 410.816ZM391.306 383.811C391.936 377.047 391.831 370.125 391.306 363.361C390.887 357.959 387.479 354.236 381.92 354.236C381.868 354.236 381.763 354.236 381.71 354.236C375.733 354.341 372.429 358.222 371.852 364.042C371.538 367.188 371.8 370.387 371.8 373.586C371.8 376.784 371.538 379.983 371.852 383.129C372.377 388.53 374.789 392.411 380.872 392.725C381.134 392.725 381.396 392.725 381.606 392.725C387.374 392.673 390.782 389.317 391.306 383.811ZM386.482 383.339C386.168 386.433 384.699 387.796 381.606 387.796C381.448 387.796 381.239 387.796 381.081 387.796C378.879 387.691 378.25 386.905 377.987 386.643C377.306 385.856 376.886 384.493 376.729 382.657C376.572 380.77 376.624 378.725 376.677 376.627C376.677 375.631 376.729 374.635 376.729 373.638C376.729 372.589 376.729 371.488 376.677 370.492C376.624 368.395 376.572 366.454 376.781 364.619C376.991 362.784 377.516 361.315 378.354 360.424C379.141 359.585 380.295 359.218 381.868 359.166C381.92 359.166 381.973 359.166 382.025 359.166C383.388 359.166 384.49 359.533 385.224 360.267C386.01 361.053 386.43 362.259 386.587 363.78C387.007 371.069 387.007 377.466 386.482 383.339ZM451.347 163.208C442.485 154.241 431.893 146.952 420.042 141.866C408.191 136.779 395.134 134 381.291 134C372.534 134 363.515 135.101 354.286 137.513C343.641 140.292 333.783 144.907 324.973 150.99C311.812 160.114 301.062 172.489 293.616 186.595C286.17 200.7 281.975 216.641 281.975 232.844C281.975 237.039 282.237 241.287 282.814 245.482C286.275 270.861 289.526 296.293 292.62 321.725C292.777 323.246 293.092 324.557 293.563 325.763C293.931 326.654 294.35 327.493 294.927 328.175C295.346 328.699 295.871 329.171 296.448 329.591C297.287 330.168 298.283 330.587 299.384 330.849C300.485 331.112 301.639 331.216 303.002 331.216C303.055 331.216 303.16 331.216 303.212 331.216C315.325 331.112 327.438 331.112 339.499 331.112C353.552 331.112 367.552 331.164 381.606 331.164C381.868 331.164 382.182 331.164 382.445 331.164C396.183 331.164 409.922 331.112 423.66 331.112C435.039 331.112 446.418 331.164 457.797 331.374C457.954 331.374 458.164 331.374 458.321 331.374C460.209 331.374 461.887 331.216 463.408 330.745C464.509 330.43 465.505 329.958 466.397 329.276C467.026 328.804 467.603 328.228 468.127 327.546C468.861 326.55 469.386 325.448 469.753 324.137C470.12 322.879 470.382 321.463 470.539 319.89C473.056 295.087 475.573 270.337 478.929 245.691C479.558 241.182 479.821 236.725 479.821 232.32C479.873 205.734 469.071 181.141 451.347 163.208ZM470.696 244.59C467.236 269.97 464.614 296.084 462.254 319.051C462.097 320.467 461.887 321.358 461.73 321.883C461.625 322.145 461.572 322.355 461.468 322.407C461.415 322.459 461.415 322.512 461.415 322.512C461.363 322.512 461.258 322.564 461.1 322.669C460.786 322.774 460.366 322.879 459.842 322.879C459.318 322.931 458.793 322.931 458.321 322.931C458.216 322.931 458.059 322.931 457.954 322.931C447.991 322.774 437.137 322.669 423.66 322.669C416.791 322.669 409.817 322.669 403.052 322.722C396.288 322.722 389.314 322.774 382.497 322.774H381.658C374.946 322.774 368.129 322.774 361.522 322.774C354.338 322.774 346.892 322.774 339.551 322.774C325.288 322.774 313.699 322.827 303.159 322.879C303.107 322.879 303.055 322.879 303.055 322.879C302.32 322.879 301.744 322.827 301.429 322.774H301.377C301.324 322.722 301.324 322.617 301.272 322.512C301.167 322.145 301.062 321.568 300.957 320.729C297.811 294.51 294.507 268.816 291.151 244.328C290.627 240.5 290.365 236.62 290.365 232.792C290.365 225.923 291.204 219.001 292.829 212.132C295.346 201.696 299.646 191.786 305.572 182.714C317.842 164.047 335.88 150.832 356.383 145.484C364.721 143.334 373.058 142.233 381.291 142.233C394.662 142.233 407.457 145.064 419.36 150.623C425.076 153.349 430.53 156.6 435.564 160.376C440.545 164.151 445.16 168.399 449.25 173.118C453.392 177.838 457.01 182.976 460.052 188.43C463.146 193.936 465.663 199.756 467.498 205.787C470.172 214.439 471.535 223.301 471.535 232.267C471.535 236.41 471.273 240.5 470.696 244.59ZM465.558 335.464C465.086 335.044 464.561 334.677 464.037 334.415C463.198 333.996 462.307 333.733 461.31 333.576C460.314 333.419 459.265 333.366 458.164 333.366C458.059 333.366 457.954 333.366 457.849 333.366C453.445 333.419 449.04 333.419 444.635 333.419C438.867 333.419 433.099 333.419 427.331 333.419V333.366H425.6C419.78 333.366 413.907 333.262 408.034 333.262C403.367 333.262 398.7 333.314 393.981 333.576C392.617 333.629 391.306 333.838 389.996 334.258C388.999 334.52 388.055 334.94 387.164 335.411C385.801 336.146 384.595 337.142 383.703 338.4C383.284 339.03 382.917 339.764 382.654 340.55C382.392 341.337 382.287 342.176 382.287 343.067C382.287 343.644 382.34 344.273 382.445 344.903C382.707 346.318 383.284 347.629 383.965 348.783C385.014 350.513 386.273 351.982 387.479 353.397C388.685 354.813 389.838 356.124 390.572 357.488C391.988 360.005 392.932 362.836 393.509 365.773C394.086 368.709 394.295 371.803 394.295 374.844C394.295 375.474 394.295 376.103 394.243 376.732C394.191 378.725 394.033 380.717 393.771 382.605C393.456 384.493 393.037 386.38 392.355 388.111C391.621 389.999 390.677 391.467 389.576 392.83C388.79 393.827 387.898 394.77 387.059 395.714C386.43 396.396 385.748 397.13 385.171 397.864C384.227 398.965 383.388 400.171 382.759 401.587C382.13 403.003 381.763 404.629 381.763 406.516C381.763 408.404 382.13 410.554 382.969 413.019C383.179 413.595 383.388 414.225 383.703 414.801C384.018 415.431 384.437 416.06 385.066 416.584C385.434 416.899 385.853 417.214 386.22 417.423C386.849 417.738 387.479 417.948 388.055 418.105C388.632 418.262 389.209 418.367 389.786 418.472C395.449 419.416 401.165 419.626 406.775 419.626C411.495 419.626 416.214 419.468 420.829 419.416C431.945 419.259 442.013 415.064 449.564 408.09C457.115 401.168 462.202 391.467 463.408 380.403C464.719 368.237 465.558 356.019 467.34 344.064C467.498 343.015 467.603 342.071 467.603 341.232C467.603 339.869 467.393 338.663 466.973 337.614C466.659 336.722 466.187 336.041 465.558 335.464ZM459.213 342.753C457.954 351.143 457.115 359.637 456.381 367.818C456.014 371.646 455.647 375.578 455.228 379.459C454.231 388.53 450.141 396.344 444.058 401.902C437.923 407.513 429.848 410.869 420.776 411.026C418.993 411.026 417.21 411.078 415.533 411.131C412.648 411.183 409.712 411.236 406.828 411.236C400.431 411.236 395.606 410.921 391.202 410.187C391.097 410.187 390.992 410.135 390.887 410.135C390.31 408.352 390.153 407.146 390.153 406.412C390.153 405.992 390.205 405.73 390.258 405.52C390.258 405.415 390.31 405.363 390.31 405.258C390.31 405.205 390.363 405.153 390.363 405.048C390.467 404.838 390.572 404.576 390.73 404.314C390.992 403.895 391.307 403.475 391.726 402.951C392.146 402.426 392.67 401.902 393.247 401.273C395.397 398.965 398.281 395.872 400.168 391.1C401.165 388.53 401.794 385.961 402.109 383.549C402.476 381.137 402.581 378.83 402.633 376.889C402.633 376.155 402.685 375.474 402.685 374.792C402.685 370.492 402.318 366.559 401.532 362.993C400.745 359.428 399.539 356.229 397.914 353.293C396.708 351.09 395.187 349.36 393.771 347.787C392.932 346.79 392.146 345.951 391.621 345.165C391.359 344.798 391.149 344.431 390.992 344.116C390.835 343.801 390.73 343.539 390.677 343.277C390.625 343.12 390.625 343.015 390.625 342.962C390.677 342.91 390.782 342.805 390.939 342.7C391.254 342.49 391.778 342.281 392.408 342.123C393.037 341.966 393.719 341.861 394.453 341.809C398.386 341.599 402.685 341.494 408.034 341.494C410.918 341.494 413.907 341.547 416.791 341.547C419.413 341.547 422.087 341.599 424.761 341.599C425.024 341.652 425.338 341.652 425.653 341.652C428.799 341.652 432.05 341.652 435.144 341.652C438.29 341.652 441.489 341.652 444.688 341.652C449.826 341.652 454.074 341.652 458.007 341.599C458.059 341.599 458.164 341.599 458.216 341.599C458.688 341.599 459.055 341.599 459.318 341.652C459.265 341.966 459.265 342.333 459.213 342.753Z" fill="#666666"/>
</g>
</svg>
